<svg xmlns="http://www.w3.org/2000/svg" viewBox="0 28 505 368" preserveAspectRatio="xMinYMid meet" overflow="visible">
<g transform="translate(0.000000,475.000000) scale(0.100000,-0.100000)" fill="white">
<path d="M197 4323 c-12 -12 -7 -51 7 -56 8 -3 47 -9 87 -12 100 -9 149 -23
178 -48 49 -45 54 -74 62 -357 10 -372 10 -1281 -1 -1755 -12 -516 -28 -636
-109 -790 -41 -81 -156 -203 -241 -258 -77 -49 -107 -83 -93 -105 7 -12 22
-16 47 -15 79 5 334 151 507 291 215 173 384 418 439 637 50 195 52 241 60
1255 6 618 12 972 19 1004 21 96 52 121 166 136 126 16 127 17 123 48 l-3 27
-621 3 c-341 1 -624 -1 -627 -5z"/>
<path d="M1736 4323 c-10 -11 -7 -40 7 -51 6 -6 58 -15 113 -20 122 -12 157
-28 186 -85 20 -39 22 -63 31 -347 10 -336 1 -1505 -12 -1696 -16 -210 -37
-246 -161 -264 -123 -18 -122 -17 -118 -48 l3 -27 345 -1 c246 -1 390 -6 500
-17 202 -22 566 -23 727 -2 367 48 637 175 854 402 161 168 271 382 325 633
22 102 30 345 15 464 -26 206 -110 424 -219 566 -229 301 -564 449 -1102 489
-151 11 -1483 14 -1494 4z m1414 -236 c285 -73 493 -250 630 -533 94 -195 132
-366 131 -601 -1 -433 -89 -677 -303 -838 -140 -105 -258 -144 -458 -152 -198
-8 -325 29 -400 114 -42 47 -50 87 -60 293 -11 217 -13 1107 -3 1463 6 229 8
249 25 258 67 36 289 34 438 -4z"/>
</g>
</svg>
