<svg xmlns="http://www.w3.org/2000/svg" viewBox="0 0 3258.000000 475.000000">
<g transform="translate(0.000000,475.000000) scale(0.100000,-0.100000)" fill="white">
<path d="M197 4323 c-12 -12 -7 -51 7 -56 8 -3 47 -9 87 -12 100 -9 149 -23
178 -48 49 -45 54 -74 62 -357 10 -372 10 -1281 -1 -1755 -12 -516 -28 -636
-109 -790 -41 -81 -156 -203 -241 -258 -77 -49 -107 -83 -93 -105 7 -12 22
-16 47 -15 79 5 334 151 507 291 215 173 384 418 439 637 50 195 52 241 60
1255 6 618 12 972 19 1004 21 96 52 121 166 136 126 16 127 17 123 48 l-3 27
-621 3 c-341 1 -624 -1 -627 -5z"/>
<path d="M1736 4323 c-10 -11 -7 -40 7 -51 6 -6 58 -15 113 -20 122 -12 157
-28 186 -85 20 -39 22 -63 31 -347 10 -336 1 -1505 -12 -1696 -16 -210 -37
-246 -161 -264 -123 -18 -122 -17 -118 -48 l3 -27 345 -1 c246 -1 390 -6 500
-17 202 -22 566 -23 727 -2 367 48 637 175 854 402 161 168 271 382 325 633
22 102 30 345 15 464 -26 206 -110 424 -219 566 -229 301 -564 449 -1102 489
-151 11 -1483 14 -1494 4z m1414 -236 c285 -73 493 -250 630 -533 94 -195 132
-366 131 -601 -1 -433 -89 -677 -303 -838 -140 -105 -258 -144 -458 -152 -198
-8 -325 29 -400 114 -42 47 -50 87 -60 293 -11 217 -13 1107 -3 1463 6 229 8
249 25 258 67 36 289 34 438 -4z"/>
<path d="M5984 4315 c-10 -25 4 -32 80 -40 98 -9 155 -37 181 -90 29 -60 38
-406 31 -1300 -5 -745 -11 -878 -42 -961 -21 -59 -42 -73 -125 -87 -63 -11
-74 -16 -74 -32 0 -20 9 -20 425 -20 418 0 425 0 425 20 0 18 -11 21 -105 33
-112 13 -142 27 -172 78 -38 65 -41 148 -45 1214 -5 1024 -4 1036 15 1060 20
25 23 25 174 25 182 0 234 -13 346 -88 172 -115 272 -318 273 -552 0 -118 -11
-174 -57 -271 -59 -125 -167 -222 -303 -272 -40 -14 -111 -28 -186 -35 -112
-11 -120 -13 -123 -34 -5 -31 27 -37 172 -30 412 19 716 281 767 663 36 274
-78 527 -288 636 -174 91 -238 98 -855 98 -435 0 -509 -2 -514 -15z"/>
<path d="M17355 3598 c-449 -24 -737 -235 -871 -638 -27 -80 -28 -95 -29 -265
0 -158 3 -191 23 -265 93 -343 356 -576 737 -655 172 -35 548 -36 699 -1 105
25 133 41 150 89 21 55 56 258 56 319 0 42 -3 49 -17 46 -11 -2 -23 -20 -31
-48 -41 -140 -78 -197 -157 -241 -86 -48 -163 -63 -330 -63 -200 0 -308 28
-465 120 -78 46 -209 170 -263 248 -52 77 -110 204 -133 291 -26 98 -26 347
-1 458 29 123 88 229 176 317 136 135 279 184 541 183 134 0 168 -4 251 -26
229 -60 324 -148 350 -321 12 -77 30 -106 50 -75 5 8 9 69 9 137 0 67 5 166
11 219 6 52 7 99 2 104 -5 5 -60 16 -123 24 -353 48 -442 54 -635 43z"/>
<path d="M18400 3573 c-5 -21 -22 -97 -37 -170 -21 -100 -25 -135 -16 -144 17
-17 30 -4 63 60 36 72 75 106 137 119 26 6 146 13 266 16 l219 5 -5 -747 c-5
-767 -8 -828 -45 -865 -10 -10 -40 -20 -70 -24 -54 -6 -72 -17 -55 -34 8 -8
524 -15 631 -10 6 1 12 9 12 20 0 16 -12 20 -81 29 -106 13 -124 30 -139 127
-6 41 -13 371 -17 786 l-6 716 99 -3 c54 -2 164 -5 244 -8 209 -5 243 -24 258
-142 6 -50 10 -59 27 -59 19 0 20 8 23 174 l2 174 -47 -7 c-133 -19 -285 -25
-668 -25 -435 -1 -622 8 -708 34 -70 21 -75 20 -87 -22z"/>
<path d="M26230 3600 c-187 -20 -328 -107 -396 -245 -26 -53 -29 -73 -32 -170
-3 -92 -1 -120 18 -174 42 -127 138 -242 317 -382 299 -235 364 -321 364 -481
1 -201 -193 -334 -423 -288 -166 32 -252 127 -273 303 -5 37 -10 47 -25 47
-24 0 -28 -19 -36 -206 -8 -190 -9 -189 103 -225 54 -17 100 -23 224 -27 174
-5 263 10 376 65 110 54 213 186 242 313 15 66 13 187 -4 255 -38 146 -156
284 -405 475 -239 184 -300 262 -300 385 0 177 151 284 358 255 90 -12 160
-41 200 -83 33 -34 62 -102 62 -146 0 -34 25 -70 38 -56 6 6 13 87 17 181 l7
172 -28 5 c-135 26 -306 38 -404 27z"/>
<path d="M10661 3589 c-81 -14 -228 -66 -298 -105 -159 -89 -290 -228 -373
-399 -67 -137 -90 -225 -97 -367 -18 -386 171 -722 493 -875 145 -68 221 -85
420 -90 191 -6 271 5 413 55 135 48 226 107 336 217 138 138 214 276 255 461
24 109 27 317 6 426 -63 327 -294 562 -645 655 -83 22 -121 26 -276 29 -99 1
-204 -2 -234 -7z m316 -95 c292 -60 503 -295 568 -635 16 -85 22 -311 10 -385
-17 -106 -41 -187 -81 -273 -58 -123 -161 -230 -274 -284 -191 -90 -418 -88
-612 7 -222 110 -374 339 -418 630 -15 100 -15 291 0 376 16 94 47 186 88 260
43 78 147 185 222 227 146 83 332 111 497 77z"/>
<path d="M21951 3589 c-81 -14 -228 -66 -298 -105 -159 -89 -290 -228 -373
-399 -67 -137 -90 -225 -97 -367 -18 -386 171 -722 493 -875 145 -68 221 -85
420 -90 191 -6 271 5 413 55 135 48 226 107 336 217 138 138 214 276 255 461
24 109 27 317 6 426 -63 327 -294 562 -645 655 -83 22 -121 26 -276 29 -99 1
-204 -2 -234 -7z m316 -95 c292 -60 503 -295 568 -635 16 -85 22 -311 10 -385
-17 -106 -41 -187 -81 -273 -58 -123 -161 -230 -274 -284 -191 -90 -418 -88
-612 7 -222 110 -374 339 -418 630 -15 100 -15 291 0 376 16 94 47 186 88 260
43 78 147 185 222 227 146 83 332 111 497 77z"/>
<path d="M23645 3588 c-2 -7 -6 -377 -8 -823 -4 -866 -5 -876 -54 -915 -15
-11 -49 -22 -84 -26 -49 -5 -59 -10 -59 -25 0 -11 7 -19 15 -20 8 0 134 0 280
0 146 0 274 0 285 0 13 1 20 8 20 20 0 17 -10 20 -76 26 -91 9 -126 33 -143
97 -11 41 -55 1142 -49 1218 l3 36 165 -175 c247 -261 1020 -1040 1139 -1148
83 -75 109 -93 130 -91 l26 3 8 835 c8 752 10 838 25 870 17 35 31 42 115 55
28 4 37 11 37 25 0 11 -3 20 -7 20 -12 1 -526 1 -545 1 -11 -1 -18 -9 -18 -20
0 -16 10 -21 58 -26 123 -14 156 -42 166 -139 7 -61 38 -1218 33 -1222 -5 -5
-629 625 -1051 1061 -348 359 -397 403 -411 363z"/>
<path d="M12179 3568 c-37 -14 -13 -33 55 -44 85 -14 111 -28 131 -71 15 -30
17 -103 22 -576 6 -632 -4 -920 -36 -991 -20 -46 -22 -47 -105 -64 -22 -4 -41
-13 -44 -20 -7 -22 41 -28 168 -22 69 3 202 -1 295 -8 97 -7 264 -11 390 -9
197 4 230 7 316 30 269 71 461 222 579 456 139 279 143 603 9 861 -130 252
-369 401 -719 451 -95 14 -1027 19 -1061 7z m769 -98 c272 -21 439 -90 606
-249 78 -75 136 -155 176 -245 102 -224 97 -546 -12 -776 -45 -95 -157 -202
-268 -258 -136 -68 -217 -85 -405 -86 -258 -2 -378 39 -407 136 -9 33 -13 207
-13 740 0 794 -9 725 92 738 83 11 95 11 231 0z"/>
<path d="M14367 3572 c-9 -2 -17 -12 -17 -22 0 -15 10 -20 58 -25 80 -9 110
-23 130 -59 15 -27 17 -94 23 -586 7 -597 10 -628 64 -762 70 -171 209 -291
400 -344 90 -25 382 -31 478 -10 225 50 390 196 461 407 48 144 56 231 57 649
0 212 4 445 8 519 6 128 7 134 33 156 18 15 47 26 83 30 45 6 55 11 55 26 0
11 -6 19 -12 19 -174 6 -542 0 -551 -9 -18 -18 2 -28 77 -40 52 -8 76 -17 95
-35 24 -24 25 -33 32 -183 11 -234 10 -666 -1 -844 -16 -252 -60 -379 -166
-479 -231 -219 -666 -146 -798 134 -38 80 -56 172 -67 331 -10 159 -10 620 -1
863 7 161 7 164 34 187 17 14 46 25 82 29 57 8 76 20 59 37 -9 9 -575 19 -616
11z"/>
<path d="M20238 3570 c-13 -3 -23 -12 -23 -20 0 -14 20 -21 102 -36 35 -7 61
-42 70 -93 4 -25 8 -345 7 -711 -1 -859 -1 -864 -119 -885 -56 -10 -78 -26
-56 -40 8 -5 512 -9 634 -6 10 1 17 9 17 20 0 16 -10 21 -57 26 -79 8 -122 25
-145 55 -33 44 -39 210 -36 910 3 612 4 658 21 683 21 33 44 43 110 52 38 5
47 10 47 26 0 11 -7 19 -17 19 -403 4 -536 4 -555 0z"/>
<path d="M8062 3553 c2 -14 17 -20 60 -25 77 -10 116 -32 136 -76 14 -33 16
-114 17 -757 0 -773 -3 -820 -48 -850 -12 -7 -46 -17 -74 -21 -43 -5 -53 -10
-53 -25 0 -11 6 -19 13 -19 204 -6 611 0 619 8 19 19 -2 31 -72 38 -148 14
-155 33 -155 428 l0 280 150 -3 c83 -1 155 -7 162 -13 7 -5 111 -137 232 -292
241 -311 298 -373 376 -411 56 -28 193 -45 366 -45 114 0 149 7 149 31 0 11
-3 19 -7 19 -68 1 -183 24 -230 47 -98 47 -335 301 -641 689 l-32 40 77 81
c83 85 129 153 172 255 23 57 26 75 26 188 0 116 -2 129 -28 184 -57 123 -131
186 -272 234 l-80 26 -433 4 c-415 3 -434 3 -430 -15z m758 -98 c148 -60 227
-173 252 -361 26 -190 -42 -381 -155 -440 -64 -34 -301 -34 -383 1 l-34 14 2
398 3 398 35 7 c64 12 232 2 280 -17z"/>
<path d="M29377 3033 c-4 -3 -7 -250 -8 -547 0 -298 -4 -563 -8 -589 -10 -61
-27 -78 -85 -84 -30 -4 -46 -10 -46 -19 0 -11 39 -14 210 -14 180 0 210 2 210
15 0 11 -11 15 -35 15 -63 0 -103 24 -114 67 -5 21 -15 184 -20 363 -6 179
-13 366 -16 417 l-5 92 237 -246 c284 -294 703 -704 737 -722 58 -32 56 -53
56 556 0 353 4 572 10 595 9 33 16 39 53 48 63 16 69 19 62 30 -4 6 -83 10
-206 10 -158 0 -199 -3 -199 -13 0 -9 22 -17 62 -23 100 -15 97 -6 108 -360 5
-164 9 -360 9 -434 l1 -135 -491 493 c-270 270 -497 492 -503 492 -7 0 -16 -3
-19 -7z"/>
<path d="M31325 3024 c-287 -61 -485 -310 -485 -609 1 -318 168 -538 477 -627
71 -21 99 -23 298 -23 319 0 341 10 369 161 20 112 21 164 2 164 -9 0 -21 -21
-30 -53 -23 -81 -53 -118 -121 -152 -55 -27 -70 -30 -181 -33 -202 -6 -325 39
-455 168 -125 125 -180 255 -180 432 -1 174 35 281 123 374 81 85 176 126 325
139 137 12 297 -23 390 -86 47 -32 78 -89 88 -161 7 -51 31 -67 39 -25 11 54
13 307 2 307 -6 0 -74 9 -151 20 -169 24 -405 26 -510 4z"/>
<path d="M28550 3006 c0 -9 17 -16 45 -21 83 -12 80 8 80 -530 0 -470 -6 -589
-29 -620 -6 -9 -31 -19 -54 -22 -26 -3 -42 -11 -42 -19 0 -11 42 -14 230 -14
187 0 230 3 230 14 0 8 -17 15 -50 19 -62 8 -88 21 -103 55 -13 30 -24 937
-12 1030 8 62 23 80 76 88 23 4 39 12 39 20 0 11 -38 14 -205 14 -168 0 -205
-2 -205 -14z"/>
<path d="M27081 2075 c-40 -29 -77 -80 -86 -116 -5 -21 2 -35 35 -74 23 -27
46 -59 51 -72 25 -66 -1 -151 -80 -265 -28 -41 -51 -80 -51 -86 0 -7 11 -12
23 -12 45 0 192 174 249 295 56 119 50 266 -13 333 -28 31 -85 29 -128 -3z"/>
<path d="M32288 1965 c-36 -20 -48 -44 -48 -98 0 -65 33 -97 100 -97 42 0 55
5 75 26 34 37 35 111 2 149 -28 33 -90 42 -129 20z"/>
<path d="M27197 1279 c-61 -10 -119 -47 -154 -101 -37 -55 -39 -142 -6 -205
13 -24 19 -43 14 -43 -22 0 -106 -89 -127 -135 -48 -103 -23 -242 55 -308 55
-46 110 -60 213 -55 97 4 143 20 215 74 l32 24 44 -30 c57 -38 82 -47 155 -56
64 -7 152 2 152 15 0 5 -18 11 -41 15 -52 8 -107 36 -186 94 l-62 45 18 26
c63 89 102 231 70 252 -19 12 -159 12 -159 0 0 -5 13 -12 29 -16 16 -3 35 -13
42 -21 16 -20 7 -119 -17 -173 l-19 -44 -140 139 c-179 177 -218 233 -223 318
-4 56 -1 65 23 94 39 46 92 60 150 38 51 -20 79 -54 89 -108 14 -76 36 -27 36
79 0 52 -1 55 -32 67 -44 18 -112 24 -171 15z m-83 -429 c16 -21 86 -96 156
-165 124 -122 127 -126 106 -140 -78 -51 -193 -62 -264 -26 -44 22 -83 67
-102 116 -15 39 -15 131 0 170 11 28 57 85 69 85 3 0 19 -18 35 -40z"/>
<path d="M14580 1149 c-36 -4 -128 -7 -204 -8 -138 -1 -155 -6 -93 -26 30 -9
32 -14 40 -70 9 -66 2 -530 -8 -558 -4 -9 -18 -17 -31 -17 -13 0 -24 -4 -24
-8 0 -10 369 -26 392 -17 19 8 35 122 19 138 -7 7 -12 4 -16 -9 -22 -70 -58
-90 -148 -81 -74 7 -80 17 -85 156 -3 66 -2 126 0 133 4 10 25 12 84 8 78 -5
79 -6 93 -37 8 -18 18 -33 22 -33 8 0 23 140 15 147 -3 3 -13 0 -21 -7 -10 -9
-47 -14 -103 -14 l-87 -1 0 125 0 125 50 3 c28 1 68 -1 90 -5 33 -7 42 -14 50
-41 16 -56 28 -40 38 55 3 24 2 44 -1 46 -4 1 -36 0 -72 -4z"/>
<path d="M17750 1149 c-36 -4 -128 -7 -204 -8 -138 -1 -155 -6 -93 -26 30 -9
32 -14 40 -70 9 -66 2 -530 -8 -558 -4 -9 -18 -17 -31 -17 -13 0 -24 -4 -24
-8 0 -10 369 -26 392 -17 19 8 35 122 19 138 -7 7 -12 4 -16 -9 -22 -70 -58
-90 -148 -81 -74 7 -80 17 -85 156 -3 66 -2 126 0 133 4 10 25 12 84 8 78 -5
79 -6 93 -37 8 -18 18 -33 22 -33 8 0 23 140 15 147 -3 3 -13 0 -21 -7 -10 -9
-47 -14 -103 -14 l-87 -1 0 125 0 125 50 3 c28 1 68 -1 90 -5 33 -7 42 -14 50
-41 16 -56 28 -40 38 55 3 24 2 44 -1 46 -4 1 -36 0 -72 -4z"/>
<path d="M18851 1109 c-20 -93 -9 -117 27 -56 22 39 51 47 166 47 l69 0 -5
-300 c-5 -312 -8 -330 -49 -330 -11 0 -19 -4 -19 -10 0 -6 50 -10 131 -10 84
0 128 4 124 10 -3 6 -16 10 -28 10 -44 0 -52 15 -59 112 -3 51 -7 189 -7 307
l-1 214 93 -6 c50 -2 100 -8 109 -12 10 -4 20 -22 24 -41 11 -57 24 -38 24 34
l0 67 -237 0 c-131 0 -264 3 -295 7 l-56 8 -11 -51z"/>
<path d="M19900 1149 c-36 -4 -128 -7 -204 -8 -138 -1 -155 -6 -93 -26 30 -9
32 -14 40 -70 9 -66 2 -530 -8 -558 -4 -9 -18 -17 -31 -17 -13 0 -24 -4 -24
-8 0 -10 369 -26 392 -17 19 8 35 122 19 138 -7 7 -12 4 -16 -9 -22 -70 -58
-90 -148 -81 -74 7 -80 17 -85 156 -3 66 -2 126 0 133 4 10 25 12 84 8 78 -5
79 -6 93 -37 8 -18 18 -33 22 -33 8 0 23 140 15 147 -3 3 -13 0 -21 -7 -10 -9
-47 -14 -103 -14 l-87 -1 0 125 0 125 50 3 c28 1 68 -1 90 -5 33 -7 42 -14 50
-41 16 -56 28 -40 38 55 3 24 2 44 -1 46 -4 1 -36 0 -72 -4z"/>
<path d="M20761 1109 c-20 -93 -9 -117 27 -56 22 39 51 47 166 47 l69 0 -5
-300 c-5 -312 -8 -330 -49 -330 -11 0 -19 -4 -19 -10 0 -6 50 -10 131 -10 84
0 128 4 124 10 -3 6 -16 10 -28 10 -44 0 -52 15 -59 112 -3 51 -7 189 -7 307
l-1 214 93 -6 c50 -2 100 -8 109 -12 10 -4 20 -22 24 -41 11 -57 24 -38 24 34
l0 67 -237 0 c-131 0 -264 3 -295 7 l-56 8 -11 -51z"/>
<path d="M24760 1149 c-36 -4 -128 -7 -204 -8 -138 -1 -155 -6 -93 -26 30 -9
32 -14 40 -70 9 -66 2 -530 -8 -558 -4 -9 -18 -17 -31 -17 -13 0 -24 -4 -24
-8 0 -10 369 -26 392 -17 19 8 35 122 19 138 -7 7 -12 4 -16 -9 -22 -70 -58
-90 -148 -81 -74 7 -80 17 -85 156 -3 66 -2 126 0 133 4 10 25 12 84 8 78 -5
79 -6 93 -37 8 -18 18 -33 22 -33 8 0 23 140 15 147 -3 3 -13 0 -21 -7 -10 -9
-47 -14 -103 -14 l-87 -1 0 125 0 125 50 3 c28 1 68 -1 90 -5 33 -7 42 -14 50
-41 16 -56 28 -40 38 55 3 24 2 44 -1 46 -4 1 -36 0 -72 -4z"/>
<path d="M25861 1109 c-20 -93 -9 -117 27 -56 22 39 51 47 166 47 l69 0 -5
-300 c-5 -312 -8 -330 -49 -330 -11 0 -19 -4 -19 -10 0 -6 50 -10 131 -10 84
0 128 4 124 10 -3 6 -16 10 -28 10 -44 0 -52 15 -59 112 -3 51 -7 189 -7 307
l-1 214 93 -6 c50 -2 100 -8 109 -12 10 -4 20 -22 24 -41 11 -57 24 -38 24 34
l0 67 -237 0 c-131 0 -264 3 -295 7 l-56 8 -11 -51z"/>
<path d="M30600 1149 c-36 -4 -128 -7 -204 -8 -138 -1 -155 -6 -93 -26 30 -9
32 -14 40 -70 9 -66 2 -530 -8 -558 -4 -9 -18 -17 -31 -17 -13 0 -24 -4 -24
-8 0 -10 369 -26 392 -17 19 8 35 122 19 138 -7 7 -12 4 -16 -9 -22 -70 -58
-90 -148 -81 -74 7 -80 17 -85 156 -3 66 -2 126 0 133 4 10 25 12 84 8 78 -5
79 -6 93 -37 8 -18 18 -33 22 -33 8 0 23 140 15 147 -3 3 -13 0 -21 -7 -10 -9
-47 -14 -103 -14 l-87 -1 0 125 0 125 50 3 c28 1 68 -1 90 -5 33 -7 42 -14 50
-41 16 -56 28 -40 38 55 3 24 2 44 -1 46 -4 1 -36 0 -72 -4z"/>
<path d="M13335 1138 c-2 -7 -20 -150 -40 -318 -37 -312 -47 -350 -85 -350
-11 0 -20 -4 -20 -10 0 -6 42 -10 105 -10 63 0 105 4 105 10 0 6 -9 10 -19 10
-26 0 -50 25 -46 47 2 10 12 107 21 215 l18 198 121 -238 c75 -146 128 -238
138 -240 12 -3 46 56 140 243 l123 247 23 -226 c17 -166 20 -230 12 -240 -6
-7 -8 -16 -4 -19 3 -4 55 -7 115 -7 108 0 143 12 68 24 -26 4 -45 14 -55 30
-11 17 -27 116 -51 313 -39 329 -40 333 -57 333 -7 0 -74 -125 -150 -277 -101
-201 -141 -273 -148 -262 -5 8 -71 132 -146 277 -125 239 -156 285 -168 250z"/>
<path d="M15687 1138 c-7 -4 -4 -9 8 -13 44 -14 50 -23 58 -81 12 -85 2 -526
-12 -552 -6 -12 -20 -22 -31 -22 -10 0 -22 -4 -25 -10 -4 -6 42 -10 130 -10
88 0 134 4 130 10 -3 6 -16 10 -28 10 -58 1 -65 37 -66 350 -1 267 2 289 41
297 16 3 27 10 25 16 -3 11 -212 16 -230 5z"/>
<path d="M16250 963 c-40 -103 -95 -246 -123 -317 -53 -137 -80 -176 -122
-176 -14 0 -25 -4 -25 -10 0 -6 45 -10 116 -10 74 0 113 4 109 10 -3 6 -15 10
-26 10 -11 0 -22 6 -25 14 -6 15 51 192 69 214 7 9 37 12 105 10 l96 -3 43
-105 c25 -62 40 -114 38 -128 -5 -22 -4 -22 105 -22 72 0 109 4 105 10 -3 6
-15 10 -27 10 -11 0 -35 15 -52 32 -33 34 -54 79 -204 453 -51 124 -83 191
-93 193 -12 2 -33 -41 -89 -185z m149 -200 c1 -10 -21 -13 -79 -13 -44 0 -80
1 -80 3 0 8 69 208 76 218 6 11 82 -178 83 -208z"/>
<path d="M18058 827 c-3 -347 -5 -357 -54 -357 -13 0 -24 -4 -24 -10 0 -6 47
-10 120 -10 73 0 120 4 120 10 0 6 -13 10 -29 10 -61 0 -58 -16 -75 418 l-3
94 215 -221 c223 -230 337 -335 353 -326 5 4 9 142 9 330 0 281 2 326 16 339
8 9 24 16 35 16 10 0 19 5 19 10 0 6 -45 10 -115 10 -70 0 -115 -4 -115 -10 0
-5 13 -10 30 -10 53 0 57 -20 65 -280 l6 -235 -273 273 c-150 149 -278 272
-285 272 -8 0 -12 -88 -15 -323z"/>
<path d="M20133 1137 c-2 -4 4 -10 14 -13 63 -20 60 -15 68 -131 11 -150 0
-490 -15 -508 -7 -8 -21 -15 -31 -15 -11 0 -19 -4 -19 -10 0 -6 48 -10 125
-10 77 0 125 4 125 10 0 6 -13 10 -29 10 -50 0 -61 28 -61 157 l0 113 48 0
c27 0 55 -6 64 -12 9 -7 55 -62 102 -123 118 -150 126 -155 248 -155 59 0 98
4 98 10 0 6 -12 10 -27 10 -68 0 -136 57 -287 242 l-38 48 31 35 c51 58 71
108 71 173 0 74 -27 118 -91 150 -41 20 -61 23 -218 25 -95 1 -175 -1 -178 -6z
m317 -60 c50 -33 72 -77 73 -145 0 -68 -23 -124 -59 -141 -27 -12 -112 -15
-138 -5 -14 5 -16 29 -16 160 l0 154 54 0 c38 0 62 -6 86 -23z"/>
<path d="M21580 963 c-40 -103 -95 -246 -123 -317 -53 -137 -80 -176 -122
-176 -14 0 -25 -4 -25 -10 0 -6 45 -10 116 -10 74 0 113 4 109 10 -3 6 -15 10
-26 10 -11 0 -22 6 -25 14 -6 15 51 192 69 214 7 9 37 12 105 10 l96 -3 43
-105 c25 -62 40 -114 38 -128 -5 -22 -4 -22 105 -22 72 0 109 4 105 10 -3 6
-15 10 -27 10 -11 0 -35 15 -52 32 -33 34 -54 79 -204 453 -51 124 -83 191
-93 193 -12 2 -33 -41 -89 -185z m149 -200 c1 -10 -21 -13 -79 -13 -44 0 -80
1 -80 3 0 8 69 208 76 218 6 11 82 -178 83 -208z"/>
<path d="M22097 1138 c-7 -4 -4 -9 8 -13 44 -14 50 -23 58 -81 12 -85 2 -526
-12 -552 -6 -12 -20 -22 -31 -22 -10 0 -22 -4 -25 -10 -4 -6 42 -10 130 -10
88 0 134 4 130 10 -3 6 -16 10 -28 10 -58 1 -65 37 -66 350 -1 267 2 289 41
297 16 3 27 10 25 16 -3 11 -212 16 -230 5z"/>
<path d="M22568 827 c-3 -347 -5 -357 -54 -357 -13 0 -24 -4 -24 -10 0 -6 47
-10 120 -10 73 0 120 4 120 10 0 6 -13 10 -29 10 -61 0 -58 -16 -75 418 l-3
94 215 -221 c223 -230 337 -335 353 -326 5 4 9 142 9 330 0 281 2 326 16 339
8 9 24 16 35 16 10 0 19 5 19 10 0 6 -45 10 -115 10 -70 0 -115 -4 -115 -10 0
-5 13 -10 30 -10 53 0 57 -20 65 -280 l6 -235 -273 273 c-150 149 -278 272
-285 272 -8 0 -12 -88 -15 -323z"/>
<path d="M23525 1138 c-2 -7 -20 -150 -40 -318 -37 -312 -47 -350 -85 -350
-11 0 -20 -4 -20 -10 0 -6 42 -10 105 -10 63 0 105 4 105 10 0 6 -9 10 -19 10
-26 0 -50 25 -46 47 2 10 12 107 21 215 l18 198 121 -238 c75 -146 128 -238
138 -240 12 -3 46 56 140 243 l123 247 23 -226 c17 -166 20 -230 12 -240 -6
-7 -8 -16 -4 -19 3 -4 55 -7 115 -7 108 0 143 12 68 24 -26 4 -45 14 -55 30
-11 17 -27 116 -51 313 -39 329 -40 333 -57 333 -7 0 -74 -125 -150 -277 -101
-201 -141 -273 -148 -262 -5 8 -71 132 -146 277 -125 239 -156 285 -168 250z"/>
<path d="M25068 827 c-3 -347 -5 -357 -54 -357 -13 0 -24 -4 -24 -10 0 -6 47
-10 120 -10 73 0 120 4 120 10 0 6 -13 10 -29 10 -61 0 -58 -16 -75 418 l-3
94 215 -221 c223 -230 337 -335 353 -326 5 4 9 142 9 330 0 281 2 326 16 339
8 9 24 16 35 16 10 0 19 5 19 10 0 6 -45 10 -115 10 -70 0 -115 -4 -115 -10 0
-5 13 -10 30 -10 53 0 57 -20 65 -280 l6 -235 -273 273 c-150 149 -278 272
-285 272 -8 0 -12 -88 -15 -323z"/>
<path d="M28386 1134 c-101 -32 -180 -105 -217 -203 -17 -47 -20 -72 -17 -151
5 -116 31 -174 108 -243 78 -70 139 -90 295 -95 209 -6 229 4 242 129 7 69
-10 81 -27 20 -6 -22 -22 -49 -37 -60 -86 -68 -269 -45 -374 47 -20 17 -51 60
-70 94 -32 59 -34 69 -34 158 1 77 5 103 22 135 50 96 125 138 248 139 139 1
223 -44 239 -128 9 -50 26 -45 26 7 0 23 3 65 6 93 l6 51 -76 12 c-107 15
-280 13 -340 -5z"/>
<path d="M28947 1138 c-7 -4 -4 -9 8 -13 44 -14 50 -23 58 -81 12 -85 2 -526
-12 -552 -6 -12 -20 -22 -31 -22 -10 0 -22 -4 -25 -10 -4 -6 42 -10 130 -10
88 0 134 4 130 10 -3 6 -16 10 -28 10 -58 1 -65 37 -66 350 -1 267 2 289 41
297 16 3 27 10 25 16 -3 11 -212 16 -230 5z"/>
<path d="M29408 827 c-3 -347 -5 -357 -54 -357 -13 0 -24 -4 -24 -10 0 -6 47
-10 120 -10 73 0 120 4 120 10 0 6 -13 10 -29 10 -61 0 -58 -16 -75 418 l-3
94 215 -221 c223 -230 337 -335 353 -326 5 4 9 142 9 330 0 281 2 326 16 339
8 9 24 16 35 16 10 0 19 5 19 10 0 6 -45 10 -115 10 -70 0 -115 -4 -115 -10 0
-5 13 -10 30 -10 53 0 57 -20 65 -280 l6 -235 -273 273 c-150 149 -278 272
-285 272 -8 0 -12 -88 -15 -323z"/>
<path d="M30955 1138 c-2 -7 -20 -150 -40 -318 -37 -312 -47 -350 -85 -350
-11 0 -20 -4 -20 -10 0 -6 42 -10 105 -10 63 0 105 4 105 10 0 6 -9 10 -19 10
-26 0 -50 25 -46 47 2 10 12 107 21 215 l18 198 121 -238 c75 -146 128 -238
138 -240 12 -3 46 56 140 243 l123 247 23 -226 c17 -166 20 -230 12 -240 -6
-7 -8 -16 -4 -19 11 -12 435 -8 428 3 -3 6 -15 10 -26 10 -11 0 -22 6 -25 14
-6 15 51 192 69 214 7 9 37 12 105 10 l96 -3 43 -105 c25 -62 40 -114 38 -127
-5 -23 -4 -23 105 -23 72 0 109 4 105 10 -3 6 -15 10 -27 10 -11 0 -35 15 -52
33 -33 33 -54 78 -204 452 -51 124 -83 191 -93 193 -12 2 -33 -41 -89 -185
-195 -507 -188 -493 -254 -493 -47 0 -83 15 -96 40 -6 12 -27 151 -46 308 -39
328 -40 332 -57 332 -7 0 -74 -125 -150 -277 -101 -201 -141 -273 -148 -262
-5 8 -71 132 -146 277 -125 239 -156 285 -168 250z m1214 -375 c1 -10 -21 -13
-79 -13 -44 0 -80 1 -80 3 0 8 69 208 76 218 6 11 82 -178 83 -208z"/>
<path d="M14800 1130 c0 -5 10 -10 23 -10 13 0 32 -6 43 -14 18 -14 19 -29 19
-303 0 -303 -4 -333 -45 -333 -10 0 -21 -4 -24 -9 -8 -12 214 -24 355 -19 97
3 122 7 170 30 123 57 191 164 197 309 2 47 -1 103 -7 125 -27 102 -122 189
-236 219 -70 18 -495 22 -495 5z m444 -63 c73 -34 130 -88 163 -155 24 -49 28
-69 28 -142 0 -58 -6 -100 -18 -132 -25 -63 -93 -123 -165 -144 -70 -21 -197
-16 -234 8 -26 17 -26 19 -33 183 -8 184 -3 383 10 404 14 23 182 8 249 -22z"/>
<path d="M16816 559 c-29 -23 -34 -60 -11 -79 23 -19 18 -71 -10 -112 -29 -43
-30 -48 -11 -48 18 0 79 71 100 115 20 42 20 94 0 123 -19 27 -34 28 -68 1z"/>
</g>
</svg>